<svg width="110" height="110" viewBox="0 0 110 110" fill="none" xmlns="http://www.w3.org/2000/svg">
<circle cx="55.5" cy="54.5" r="52.5" fill="#392A2A"/>
<path d="M100 55C100 79.8528 79.8528 100 55 100C30.1472 100 10 79.8528 10 55C10 30.1472 30.1472 10 55 10C79.8528 10 100 30.1472 100 55Z" fill="#B8F868"/>
<mask id="mask0_1_27" style="mask-type:alpha" maskUnits="userSpaceOnUse" x="0" y="0" width="110" height="110">
<path d="M110 55C110 85.3757 85.3757 110 55 110C24.6243 110 0 85.3757 0 55C0 24.6243 24.6243 0 55 0C85.3757 0 110 24.6243 110 55Z" fill="#FAB0B0"/>
</mask>
<g mask="url(#mask0_1_27)">
<path d="M88 55.6111C88 74.174 73.499 89.2222 55.6111 89.2222C37.7232 89.2222 23.2222 74.174 23.2222 55.6111C23.2222 37.0482 37.7232 22 55.6111 22C73.499 22 88 37.0482 88 55.6111Z" fill="#0D0B0B"/>
</g>
<path d="M28 54.5C28 39.3122 40.3122 27 55.5 27C70.6878 27 83 39.3122 83 54.5C83 69.6878 70.6878 82 55.5 82C40.3122 82 28 69.6878 28 54.5Z" fill="#614747"/>
<path d="M44.2182 53.7818C44.2182 47.1544 49.5908 41.7818 56.2182 41.7818C62.8456 41.7818 68.2182 47.1544 68.2182 53.7818C68.2182 60.4092 62.8456 65.7818 56.2182 65.7818C49.5908 65.7818 44.2182 60.4092 44.2182 53.7818Z" fill="#DCFFB0"/>
<mask id="mask1_1_27" style="mask-type:alpha" maskUnits="userSpaceOnUse" x="45" y="42" width="23" height="24">
<path d="M68 54C68 60.6274 62.8513 66 56.5 66C50.1487 66 45 60.6274 45 54C45 47.3726 50.1487 42 56.5 42C62.8513 42 68 47.3726 68 54Z" fill="#CAF354"/>
</mask>
<g mask="url(#mask1_1_27)">
<path d="M63.4 54.1333C63.4 58.1834 60.368 61.4667 56.6278 61.4667C52.8876 61.4667 49.8556 58.1834 49.8556 54.1333C49.8556 50.0832 52.8876 46.8 56.6278 46.8C60.368 46.8 63.4 50.0832 63.4 54.1333Z" fill="#050505"/>
</g>
<path d="M50.8545 53.8909C50.8545 50.5772 53.4289 47.8909 56.6045 47.8909C59.7802 47.8909 62.3545 50.5772 62.3545 53.8909C62.3545 57.2046 59.7802 59.8909 56.6045 59.8909C53.4289 59.8909 50.8545 57.2046 50.8545 53.8909Z" fill="#161515"/>
</svg>
